<?xml version="1.0" encoding="UTF-8"?>
<svg version="1.1" xmlns="http://www.w3.org/2000/svg" width="110" height="40">
<path d="M0 0 C36.3 0 72.6 0 110 0 C110 13.2 110 26.4 110 40 C73.7 40 37.4 40 0 40 C0 26.8 0 13.6 0 0 Z " fill="#EFEFEE" transform="translate(0,0)"/>
<path d="M0 0 C9.625 -0.25 9.625 -0.25 13 2 C13.26594636 4.52649044 13.14589851 6.4974607 12.4375 8.9375 C11.83301649 11.78720799 12.42201705 14.17430556 13 17 C12.01 17 11.02 17 10 17 C9.566875 16.030625 9.13375 15.06125 8.6875 14.0625 C7.2985139 10.72268235 7.2985139 10.72268235 4 10 C4 12.64 4 15.28 4 18 C2.68 17.67 1.36 17.34 0 17 C0 11.39 0 5.78 0 0 Z " fill="#1B1B1B" transform="translate(30,11)"/>
<path d="M0 0 C0.99 0 1.98 0 3 0 C3.33 4.29 3.66 8.58 4 13 C5.65 13.33 7.3 13.66 9 14 C9.33 9.38 9.66 4.76 10 0 C11.32 0 12.64 0 14 0 C14.10823773 2.24893954 14.18569645 4.49937575 14.25 6.75 C14.29640625 8.00296875 14.3428125 9.2559375 14.390625 10.546875 C14 14 14 14 12.171875 16.42578125 C9.23994239 18.55090507 7.54763428 18.51736333 4 18 C1.828125 16.953125 1.828125 16.953125 0 15 C-0.29642569 12.28770497 -0.38061189 10.00260268 -0.25 7.3125 C-0.23195312 6.61060547 -0.21390625 5.90871094 -0.1953125 5.18554688 C-0.14826213 3.45644564 -0.07651873 1.72804795 0 0 Z " fill="#171717" transform="translate(47,11)"/>
<path d="M0 0 C3.5 0.1875 3.5 0.1875 5.5 1.1875 C5.17 2.1775 4.84 3.1675 4.5 4.1875 C2.19 3.8575 -0.12 3.5275 -2.5 3.1875 C-2.17 4.1775 -1.84 5.1675 -1.5 6.1875 C0.80252483 7.25652939 3.1372026 8.25925817 5.5 9.1875 C6.5 10.1875 6.5 10.1875 6.8125 12.5625 C6.5 15.1875 6.5 15.1875 4.875 17 C1.85793388 18.50853306 -0.16401029 18.54239252 -3.5 18.1875 C-4.49 17.5275 -5.48 16.8675 -6.5 16.1875 C-6.17 15.1975 -5.84 14.2075 -5.5 13.1875 C-3.19 13.5175 -0.88 13.8475 1.5 14.1875 C1.83 13.1975 2.16 12.2075 2.5 11.1875 C1.38625 10.89875 0.2725 10.61 -0.875 10.3125 C-4.5 9.1875 -4.5 9.1875 -6.5 7.1875 C-6.01034683 2.2909683 -5.2202738 0.27965753 0 0 Z " fill="#181818" transform="translate(70.5,10.8125)"/>
<path d="M0 0 C4.62 0 9.24 0 14 0 C14 0.99 14 1.98 14 3 C12.35 3 10.7 3 9 3 C9 7.95 9 12.9 9 18 C7.68 18 6.36 18 5 18 C5 13.05 5 8.1 5 3 C3.35 3 1.7 3 0 3 C0 2.01 0 1.02 0 0 Z " fill="#1E1E1E" transform="translate(78,11)"/>
<path d="M0 0 C4.62 0 9.24 0 14 0 C14 0.99 14 1.98 14 3 C12.35 3 10.7 3 9 3 C9 7.95 9 12.9 9 18 C7.68 18 6.36 18 5 18 C5 13.05 5 8.1 5 3 C3.35 3 1.7 3 0 3 C0 2.01 0 1.02 0 0 Z " fill="#1E1E1E" transform="translate(14,11)"/>
<path d="M0 0 C0.36923077 4.55384615 0.36923077 4.55384615 -1.5 6.8125 C-1.995 7.204375 -2.49 7.59625 -3 8 C-3 7.34 -3 6.68 -3 6 C-4.98 6 -6.96 6 -9 6 C-9 4.02 -9 2.04 -9 0 C-5.67465243 -1.10844919 -3.37817425 -0.84454356 0 0 Z " fill="#272727" transform="translate(43,13)"/>
<path d="M0 0 C1.65 0 3.3 0 5 0 C5 1.32 5 2.64 5 4 C3.35 4 1.7 4 0 4 C0 2.68 0 1.36 0 0 Z " fill="#E6E6E5" transform="translate(34,14)"/>
<path d="M0 0 C2.97 0.495 2.97 0.495 6 1 C5.67 1.99 5.34 2.98 5 4 C3.02 3.34 1.04 2.68 -1 2 C-0.67 1.34 -0.34 0.68 0 0 Z " fill="#0D0D0D" transform="translate(70,11)"/>
</svg>
